<?xml version="1.0" standalone="no"?>
<!DOCTYPE svg PUBLIC "-//W3C//DTD SVG 1.1//EN" "http://www.w3.org/Graphics/SVG/1.1/DTD/svg11.dtd" >
<svg xmlns="http://www.w3.org/2000/svg">
<metadata>Generated by IcoMoon</metadata>
<defs>
<font id="icomoon" horiz-adv-x="1024">
<font-face units-per-em="1024" ascent="960" descent="-64" />
<missing-glyph horiz-adv-x="1024" />
<glyph unicode="&#x20;" horiz-adv-x="512" d="" />
<glyph unicode="&#xe900;" d="M849.61 330.705c24.824 11.792 34.754 41.581 22.962 66.405s-41.581 34.754-66.405 22.962c-3.724-1.862-7.447-4.344-11.171-7.447l-60.819 28.548 49.648 22.962c14.274-14.895 37.857-19.239 57.096-9.93 24.824 11.792 34.754 41.581 22.962 66.405s-41.581 34.754-66.405 22.962c-21.101-9.93-31.651-32.892-26.686-55.234l-49.648-22.962 17.377 67.646c3.724 0.621 6.827 1.862 10.55 3.724 24.824 11.792 34.754 41.581 22.962 66.405s-41.581 34.754-66.405 22.962c-24.824-11.792-34.754-41.581-22.962-66.405 6.206-11.792 16.136-20.48 27.927-24.824l-21.721-83.782-165.081-76.335v206.041l66.405 53.993c8.688-8.068 20.48-13.033 33.513-13.033 27.307 0 49.648 22.342 49.648 49.648s-22.342 49.648-49.648 49.648c-27.307 0-49.648-22.342-49.648-49.648 0-4.344 0.621-8.688 1.862-13.033l-52.131-42.201v53.993c20.48 6.206 34.754 25.445 34.754 47.787 0 27.307-22.342 49.648-49.648 49.648s-49.648-22.342-49.648-49.648c0-23.583 16.756-44.063 39.098-48.407v-57.096l-56.475 47.787c0.621 3.724 1.241 7.447 1.241 11.171 0 27.307-22.342 49.648-49.648 49.648s-49.648-22.342-49.648-49.648 22.342-49.648 49.648-49.648c13.653 0 25.445 5.585 34.754 14.274l70.128-58.958v-204.179l-163.219 77.576-21.101 84.402c11.792 4.344 21.721 13.033 27.927 24.824 11.792 24.824 1.862 54.613-22.962 66.405s-54.613 1.862-66.405-22.962c-11.792-24.824-1.862-54.613 22.962-66.405 3.724-1.862 6.827-3.103 10.55-3.724l17.377-67.646-49.648 23.583c4.344 21.721-6.206 44.684-26.686 54.613-24.824 11.792-54.613 1.862-66.405-22.962s-1.862-54.613 22.962-66.405c19.859-9.93 43.442-4.965 57.716 10.55l49.648-23.583-60.819-28.548c-3.103 3.103-6.827 5.585-11.171 7.447-24.824 11.792-54.613 1.862-66.405-22.962s-1.862-54.613 22.962-66.405 54.613-1.862 66.405 22.962c5.585 11.171 6.206 24.204 3.103 35.375l78.196 36.616 176.873-83.782v-229.624h24.824v232.107l176.252 81.92 78.817-36.616c-3.103-11.171-2.482-24.204 3.103-35.375 11.792-25.445 41.581-35.375 66.405-23.583zM512 889.251c243.278 0 441.251-197.973 441.251-441.251s-197.973-441.251-441.251-441.251c-243.278 0-441.251 197.973-441.251 441.251s197.973 441.251 441.251 441.251z" />
<glyph unicode="&#xe901;" d="M872.572 397.11c11.792-24.824 1.862-54.613-22.962-66.405s-54.613-1.862-66.405 22.962c-5.585 11.171-6.206 24.204-3.103 35.375l8.688-4.344 11.792 24.824-5.585 2.482c3.103 3.103 6.827 5.585 11.171 7.447 24.204 12.412 53.993 2.482 66.405-22.342zM837.198 355.53c11.171 5.585 15.515 18.618 9.93 29.789s-18.618 15.515-29.789 9.93c-11.171-5.585-15.515-18.618-9.93-29.789 6.206-10.55 19.239-14.895 29.789-9.93z" />
<glyph unicode="&#xe902;" d="M863.884 520.611c11.792-24.824 1.862-54.613-22.962-66.405-19.859-9.93-42.822-4.965-57.096 9.93l6.827 3.103-11.792 24.824-8.068-3.724c-4.965 21.721 5.585 44.684 26.686 55.234 24.824 11.792 54.613 1.862 66.405-22.962zM829.13 479.030c11.171 5.585 15.515 18.618 9.93 29.789s-18.618 15.515-29.789 9.93c-11.171-5.585-15.515-18.618-9.93-29.789 5.585-10.55 18.618-15.515 29.789-9.93z" />
<glyph unicode="&#xe903;" d="M847.748 385.319c5.585-11.171 0.621-24.204-9.93-29.789-11.171-5.585-24.204-0.621-29.789 9.93-5.585 11.171-0.621 24.204 9.93 29.789 11.171 5.585 24.204 0.621 29.789-9.93z" />
<glyph unicode="&#xe904;" d="M839.059 508.199c5.585-11.171 0.621-24.204-9.93-29.789-11.171-5.585-24.204-0.621-29.789 9.93-5.585 11.171-0.621 24.204 9.93 29.789 11.171 5.585 24.824 1.241 29.789-9.93z" />
<glyph unicode="&#xe905;" d="M800.582 410.143l-11.792-24.824-8.688 4.344c2.482 8.688 7.447 17.377 14.895 23.583l5.585-3.103z" />
<glyph unicode="&#xe906;" d="M734.177 441.173l60.819-28.548c-7.447-6.206-12.412-14.274-14.895-23.583l-78.817 37.236 32.892 14.895z" />
<glyph unicode="&#xe907;" d="M778.861 492.063l11.792-24.824-6.827-3.103c-3.724 3.724-6.827 8.068-9.309 13.033-1.862 3.724-3.103 7.447-3.724 11.171l8.068 3.724z" />
<glyph unicode="&#xe908;" d="M783.825 464.136l-49.648-22.962-16.756 8.068 4.344 16.756 49.648 22.962c0.621-3.724 1.862-7.447 3.724-11.171 1.862-5.585 4.965-9.93 8.688-13.653z" />
<glyph unicode="&#xe909;" d="M771.413 603.152c11.792-24.824 1.862-54.613-22.962-66.405-3.724-1.862-6.827-3.103-10.55-3.724l1.862 6.827-26.686 6.827-3.103-11.792c-11.792 4.344-21.721 13.033-27.927 24.824-11.792 24.824-1.862 54.613 22.962 66.405s54.613 1.862 66.405-22.962zM736.659 561.571c11.171 5.585 15.515 18.618 9.93 29.789s-18.618 15.515-29.789 9.93c-11.171-5.585-15.515-18.618-9.93-29.789s19.239-14.895 29.789-9.93z" />
<glyph unicode="&#xe90a;" d="M747.21 591.36c5.585-11.171 0.621-24.204-9.93-29.789-11.171-5.585-24.204-0.621-29.789 9.93s-0.621 24.204 9.93 29.789c11.171 5.585 24.204 0.621 29.789-9.93z" />
<glyph unicode="&#xe90b;" d="M739.762 539.85l-1.862-6.827c-9.309-2.482-19.239-1.241-27.927 1.862l3.103 11.792 26.686-6.827z" />
<glyph unicode="&#xe90c;" d="M738.521 533.023l-17.377-67.646-32.272-14.274 21.101 83.782c9.309-3.103 18.618-3.724 28.548-1.862z" />
<glyph unicode="&#xe90d;" d="M734.177 441.173l-32.892-14.895-4.965 1.862 6.206 12.412 11.792-3.103 2.482 11.792z" />
<glyph unicode="&#xe90e;" d="M721.144 465.377l-4.344-16.136-8.688 3.724-5.585-12.412-14.895 3.724 1.241 6.827z" />
<glyph unicode="&#xe90f;" d="M716.8 449.241l-2.482-11.792-11.792 3.103 5.585 12.412z" />
<glyph unicode="&#xe910;" d="M702.526 440.553l-6.206-12.412 4.965-1.862-177.493-81.92v30.41l165.081 76.335-1.241-6.827z" />
<glyph unicode="&#xe911;" d="M623.709 721.067c27.307 0 49.648-22.342 49.648-49.648s-22.342-49.648-49.648-49.648c-13.033 0-24.824 4.965-33.513 13.033l7.447 6.206-17.377 21.721-4.965-3.724c-1.241 4.344-1.862 8.688-1.862 13.033 0.621 26.686 22.962 49.028 50.269 49.028zM646.051 671.418c0 12.412-9.93 21.721-21.721 21.721s-22.342-9.309-22.342-21.721c0-12.412 9.93-22.342 22.342-22.342s21.721 10.55 21.721 22.342z" />
<glyph unicode="&#xe912;" d="M645.43 671.418c0-11.996-9.725-21.721-21.721-21.721s-21.721 9.725-21.721 21.721c0 11.996 9.725 21.721 21.721 21.721s21.721-9.725 21.721-21.721z" />
<glyph unicode="&#xe913;" d="M580.887 662.73l17.377-21.721-7.447-6.206c-6.827 6.206-12.412 14.274-14.274 23.583l4.344 4.344z" />
<glyph unicode="&#xe914;" d="M590.817 634.802l-66.405-53.993v35.375l52.131 42.201c1.862-9.309 7.447-17.377 14.274-23.583z" />
<glyph unicode="&#xe915;" d="M509.518 767.612c27.307 0 49.648-22.342 49.648-49.648 0-22.342-14.895-40.96-34.754-47.787v6.827h-24.824v-7.447c-22.342 4.965-39.098 24.824-39.098 48.407-0.621 27.307 21.721 49.648 49.028 49.648zM531.239 717.964c0 12.412-9.93 21.721-22.342 21.721s-21.721-9.309-21.721-21.721c0-12.412 9.93-22.342 22.342-22.342s21.721 10.55 21.721 22.342z" />
<glyph unicode="&#xe916;" d="M509.518 740.305c12.412 0 22.342-9.93 22.342-21.721 0-12.412-9.93-22.342-22.342-22.342s-22.342 9.93-22.342 22.342c0 11.792 9.93 21.721 22.342 21.721z" />
<glyph unicode="&#xe917;" d="M523.792 344.359v-232.107h-24.824v229.624l5.585-2.482 1.862 4.965 3.103-6.206z" />
<glyph unicode="&#xe918;" d="M523.792 374.768v-30.41l-14.274-6.206-3.103 6.206 9.93 20.48-7.447 3.103z" />
<glyph unicode="&#xe919;" d="M523.792 580.81v-206.041l-14.895-6.827-9.93 4.965v203.559l1.862-1.241 9.93 11.792 8.068-10.55z" />
<glyph unicode="&#xe91a;" d="M523.792 616.184v-35.375l-4.965-4.344-8.068 10.55 7.447 9.309-8.688 8.068z" />
<glyph unicode="&#xe91b;" d="M523.792 670.798v-53.993l-14.895-11.792-9.93 7.447v56.475c3.103-0.621 6.827-1.241 10.55-1.241 4.965 0.621 9.93 1.241 14.274 3.103z" />
<glyph unicode="&#xe91c;" d="M523.792 677.004v-6.827c-4.344-1.241-9.309-1.862-14.274-1.862-3.724 0-6.827 0.621-10.55 1.241v7.447h24.824z" />
<glyph unicode="&#xe91d;" d="M518.206 596.325l-7.447-9.309-9.309 11.171 8.068 6.206z" />
<glyph unicode="&#xe91e;" d="M516.344 364.839l-9.93-20.48-7.447 15.515v3.724l9.93 4.344z" />
<glyph unicode="&#xe91f;" d="M501.45 598.187l9.309-11.171-9.93-11.792-1.862 1.241v35.995l10.55-8.068z" />
<glyph unicode="&#xe920;" d="M508.897 367.942l-9.93-4.344v9.309z" />
<glyph unicode="&#xe921;" d="M498.967 359.874l7.447-15.515-1.862-4.965-5.585 2.482z" />
<glyph unicode="&#xe922;" d="M498.967 359.874v-17.998l-176.873 83.782 4.965 2.482-5.585 12.412 14.895 3.724-1.241 6.206 163.84-77.576v-9.309l-1.241-0.621z" />
<glyph unicode="&#xe923;" d="M498.967 363.598v-3.724l-1.241 3.103z" />
<glyph unicode="&#xe924;" d="M498.967 612.461v-35.995l-70.128 58.958c6.827 6.206 11.792 14.895 13.653 24.204l56.475-47.166z" />
<glyph unicode="&#xe925;" d="M444.354 671.418c0-3.724-0.621-7.447-1.241-11.171l-5.585 4.344-17.377-21.101 9.309-8.068c-8.688-8.688-21.101-14.274-34.754-14.274-27.307 0-49.648 22.342-49.648 49.648s22.342 49.648 49.648 49.648 49.648-21.721 49.648-49.028zM416.427 671.418c0 12.412-9.93 21.721-22.342 21.721s-21.721-9.309-21.721-21.721c0-12.412 9.93-22.342 21.721-22.342s22.342 10.55 22.342 22.342z" />
<glyph unicode="&#xe926;" d="M437.527 664.592l5.585-4.344c-1.862-9.309-6.827-17.998-13.653-24.204l-9.309 7.447 17.377 21.101z" />
<glyph unicode="&#xe927;" d="M416.427 671.418c0-11.996-9.725-21.721-21.721-21.721s-21.721 9.725-21.721 21.721c0 11.996 9.725 21.721 21.721 21.721s21.721-9.725 21.721-21.721z" />
<glyph unicode="&#xe928;" d="M318.371 626.114c24.824-11.792 34.754-41.581 22.962-66.405-5.585-11.792-16.136-20.48-27.927-24.824l-3.103 11.792-26.686-6.827 1.862-6.827c-3.724 0.621-7.447 1.862-10.55 3.724-24.824 11.792-34.754 41.581-22.962 66.405 12.412 24.824 42.201 34.754 66.405 22.962zM316.509 571.501c5.585 11.171 0.621 24.204-9.93 29.789-11.171 5.585-24.204 0.621-29.789-9.93-5.585-11.171-0.621-24.204 9.93-29.789 11.171-4.965 24.824-0.621 29.789 9.93z" />
<glyph unicode="&#xe929;" d="M335.127 450.482l1.241-6.206-14.895-3.724-5.585 12.412-8.688-3.724-4.344 16.136z" />
<glyph unicode="&#xe92a;" d="M313.406 534.885l21.721-84.402-32.272 15.515-17.377 67.025c9.93-1.862 19.239-1.241 27.927 1.862z" />
<glyph unicode="&#xe92b;" d="M321.474 440.553l5.585-12.412-4.965-2.482-32.272 15.515 17.377 8.068 2.482-11.792z" />
<glyph unicode="&#xe92c;" d="M289.823 441.173l32.272-15.515-78.196-36.616c-2.482 8.688-7.447 17.377-14.895 23.583l60.819 28.548z" />
<glyph unicode="&#xe92d;" d="M315.888 452.965l5.585-12.412-11.792-3.103-2.482 11.792z" />
<glyph unicode="&#xe92e;" d="M306.579 601.29c11.171-5.585 15.515-18.618 9.93-29.789s-18.618-15.515-29.789-9.93c-11.171 5.585-15.515 18.618-9.93 29.789 5.585 10.55 18.618 15.515 29.789 9.93z" />
<glyph unicode="&#xe92f;" d="M310.924 546.676l3.103-11.792c-8.688-3.103-18.618-3.724-27.927-1.862l-1.862 6.827 26.686 6.827z" />
<glyph unicode="&#xe930;" d="M307.2 449.241l-17.377-8.068-49.648 23.583c3.724 3.724 6.206 8.068 8.688 12.412 1.862 3.724 3.103 8.068 3.724 11.792l49.648-23.583 4.965-16.136z" />
<glyph unicode="&#xe931;" d="M226.521 543.573c20.48-9.93 31.030-32.892 26.686-54.613l-13.033 6.206-11.792-24.824 11.792-5.585c-14.274-14.895-37.857-19.859-57.716-10.55-24.824 11.792-34.754 41.581-22.962 66.405s42.201 34.754 67.025 22.962zM224.659 488.96c5.585 11.171 0.621 24.204-9.93 29.789-11.171 5.585-24.204 0.621-29.168-9.93-5.585-11.171-0.621-24.204 9.93-29.789s23.583-0.621 29.168 9.93z" />
<glyph unicode="&#xe932;" d="M240.175 495.166l13.033-6.206c-0.621-4.344-1.862-8.068-3.724-11.792-2.482-4.965-5.585-8.688-8.688-12.412l-11.792 5.585 11.171 24.824z" />
<glyph unicode="&#xe933;" d="M243.898 389.042c3.103-11.171 2.482-24.204-3.103-35.375-11.792-24.824-41.581-34.754-66.405-22.962s-34.754 41.581-22.962 66.405c11.792 24.824 41.581 34.754 66.405 22.962 4.344-1.862 7.447-4.344 11.171-7.447l-5.585-2.482 11.792-24.824 8.688 3.724zM215.971 366.080c5.585 11.171 0.621 24.204-9.93 29.789-11.171 5.585-24.204 0.621-29.789-9.93s-0.621-24.204 9.93-29.789c11.171-5.585 24.204-1.241 29.789 9.93z" />
<glyph unicode="&#xe934;" d="M243.898 389.042l-9.309-4.344-11.792 24.824 5.585 2.482c7.447-5.585 13.033-13.653 15.515-22.962z" />
<glyph unicode="&#xe935;" d="M214.109 518.749c11.171-5.585 15.515-18.618 9.93-29.789s-18.618-15.515-29.789-9.93c-11.171 5.585-15.515 18.618-9.93 29.789 5.585 10.55 19.239 14.895 29.789 9.93z" />
<glyph unicode="&#xe936;" d="M206.041 395.248c11.171-5.585 15.515-18.618 9.93-29.789s-18.618-15.515-29.789-9.93c-11.171 5.585-15.515 18.618-9.93 29.789s18.618 15.515 29.789 9.93z" />
</font>
</defs>
</svg>
